# xmcd
#
# Track frame offsets: 
#        183
#        5283
#        11595
#        17493
#        22983
#        36158
#        43283
#        52708
#        71770
#        78770
#        88620
#        97933
#        107408
#        116195
#        123783
#        132938
#        142858
#        158245
#        168958
#        173170
#        187033
#        202495
#        210833
#        219420
#        234533
#        243645
#        251970
#        268408
#        277878
#
# Disc length: 3877 seconds
#
# Revision: 9
# Processed by: cddbd v1.5.2PL0 Copyright (c) Steve Scherf et al.
# Submitted via: ExactAudioCopy v1.0b3
#
DISCID=8b0f231d
DTITLE=Corelli - 12 Concerti Grossi, Opus 6 (Pinnock - The English Con
DTITLE=cert) CD1
DYEAR=1988
DGENRE=Classical
TTITLE0=Concerto, op. 6 no. 1 in D major (1) Largo
TTITLE1=Concerto, op. 6 no. 1 in D major (2) Allegro
TTITLE2=Concerto, op. 6 no. 1 in D major (3) Largo - Allegro
TTITLE3=Concerto, op. 6 no. 1 in D major (4) Allegro
TTITLE4=Concerto, op. 6 no. 1 in D major (5) Largo
TTITLE5=Concerto, op. 6 no. 1 in D major (6) Allegro
TTITLE6=Concerto, op. 6 no. 1 in D major (7) Allegro
TTITLE7=Concerto, op. 6 no. 2 in F major (1) Vivace-Allegro-Adagio-Viv
TTITLE7=ace-Allegro-Largo Andante
TTITLE8=Concerto, op. 6 no. 2 in F major (2) Allegro
TTITLE9=Concerto, op. 6 no. 2 in F major (3) Grave - Andante Largo
TTITLE10=Concerto, op. 6 no. 2 in F major (4) Allegro
TTITLE11=Concerto, op. 6 no. 3 in C minor (1) Largo
TTITLE12=Concerto, op. 6 no. 3 in C minor (2) Allegro
TTITLE13=Concerto, op. 6 no. 3 in C minor (3) Grave
TTITLE14=Concerto, op. 6 no. 3 in C minor (4) Vivace
TTITLE15=Concerto, op. 6 no. 3 in C minor (5) Allegro
TTITLE16=Concerto, op. 6 no. 4 in D major (1) Adagio - Allegro
TTITLE17=Concerto, op. 6 no. 4 in D major (2) Adagio
TTITLE18=Concerto, op. 6 no. 4 in D major (3) Vivace
TTITLE19=Concerto, op. 6 no. 4 in D major (4) Allegro
TTITLE20=Concerto, op. 6 no. 5 in B-flat major (1) Adagio - Allegro - 
TTITLE20=Adagio
TTITLE21=Concerto, op. 6 no. 5 in B-flat major (2) Adagio
TTITLE22=Concerto, op. 6 no. 5 in B-flat major (3) Allegro - Adagio
TTITLE23=Concerto, op. 6 no. 5 in B-flat major (4) Largo - Allegro
TTITLE24=Concerto, op. 6 no. 6 in F major (1) Adagio
TTITLE25=Concerto, op. 6 no. 6 in F major (2) Allegro
TTITLE26=Concerto, op. 6 no. 6 in F major (3) Largo
TTITLE27=Concerto, op. 6 no. 6 in F major (4) Vivace
TTITLE28=Concerto, op. 6 no. 6 in F major (5) Allegro
EXTD=
EXTT0=
EXTT1=
EXTT2=
EXTT3=
EXTT4=
EXTT5=
EXTT6=
EXTT7=
EXTT8=
EXTT9=
EXTT10=
EXTT11=
EXTT12=
EXTT13=
EXTT14=
EXTT15=
EXTT16=
EXTT17=
EXTT18=
EXTT19=
EXTT20=
EXTT21=
EXTT22=
EXTT23=
EXTT24=
EXTT25=
EXTT26=
EXTT27=
EXTT28=
PLAYORDER=
